# xmcd
#
# Track frame offsets:
#	150
#	13894
#	26085
#	42615
#	63290
#	79507
#	96036
#	113476
#	127313
#	141377
#	160435
#	174593
#	185321
#	203351
#	216292
#	228616
#
# Disc length: 3204 seconds
#
# Revision: 1
# Processed by: cddbd v1.5.1PL0 Copyright (c) Steve Scherf et al.
# Submitted via: EasyCDDAExtractor 6.2.0.3
#
DISCID=e20c8210
DTITLE=Chereè - Smile
DYEAR=2004
DGENRE=Country
TTITLE0=Perfect Love
TTITLE1=Walk In The Room
TTITLE2=30 Dae In Die Somer
TTITLE3=Making Love Out Of Nothing At All
TTITLE4=And The Night Stood Still
TTITLE5=Smile
TTITLE6=Prins Van Die Geweste
TTITLE7=No One Needs To Know
TTITLE8=Hey Cupid
TTITLE9=Whose Bed Have Your Boots Been Under
TTITLE10=Seven Days Without Love
TTITLE11=Dance With The One That Brought You
TTITLE12=Love That Satisfies
TTITLE13=Lucky Me, Lucky You
TTITLE14=Blue
TTITLE15=Walking After Midnight
EXTD=
EXTT0=
EXTT1=
EXTT2=
EXTT3=
EXTT4=
EXTT5=
EXTT6=
EXTT7=
EXTT8=
EXTT9=
EXTT10=
EXTT11=
EXTT12=
EXTT13=
EXTT14=
EXTT15=
PLAYORDER=
